<svg width="79" height="24" viewBox="0 0 79 24" fill="none" xmlns="http://www.w3.org/2000/svg">
<path d="M10.952 2.368H14.696V19H10.952V11.944H4.664V19H0.92V2.368H4.664V8.728H10.952V2.368ZM30.613 12.664C30.613 13.656 30.469 14.568 30.181 15.4C29.893 16.216 29.477 16.92 28.933 17.512C28.389 18.088 27.733 18.536 26.965 18.856C26.213 19.176 25.365 19.336 24.421 19.336C23.493 19.336 22.645 19.176 21.877 18.856C21.125 18.536 20.477 18.088 19.933 17.512C19.389 16.92 18.965 16.216 18.661 15.4C18.357 14.568 18.205 13.656 18.205 12.664C18.205 11.672 18.357 10.768 18.661 9.952C18.981 9.136 19.413 8.44 19.957 7.864C20.517 7.288 21.173 6.84 21.925 6.52C22.693 6.2 23.525 6.04 24.421 6.04C25.333 6.04 26.165 6.2 26.917 6.52C27.685 6.84 28.341 7.288 28.885 7.864C29.429 8.44 29.853 9.136 30.157 9.952C30.461 10.768 30.613 11.672 30.613 12.664ZM26.965 12.664C26.965 11.56 26.741 10.696 26.293 10.072C25.861 9.432 25.237 9.112 24.421 9.112C23.605 9.112 22.973 9.432 22.525 10.072C22.077 10.696 21.853 11.56 21.853 12.664C21.853 13.768 22.077 14.648 22.525 15.304C22.973 15.944 23.605 16.264 24.421 16.264C25.237 16.264 25.861 15.944 26.293 15.304C26.741 14.648 26.965 13.768 26.965 12.664ZM33.7631 3.232L37.3391 2.656V6.376H41.6351V9.352H37.3391V13.792C37.3391 14.544 37.4671 15.144 37.7231 15.592C37.9951 16.04 38.5311 16.264 39.3311 16.264C39.7151 16.264 40.1071 16.232 40.5071 16.168C40.9231 16.088 41.2991 15.984 41.6351 15.856L42.1391 18.64C41.7071 18.816 41.2271 18.968 40.6991 19.096C40.1711 19.224 39.5231 19.288 38.7551 19.288C37.7791 19.288 36.9711 19.16 36.3311 18.904C35.6911 18.632 35.1791 18.264 34.7951 17.8C34.4111 17.32 34.1391 16.744 33.9791 16.072C33.8351 15.4 33.7631 14.656 33.7631 13.84V3.232ZM43.9784 12.784C43.9784 11.664 44.1464 10.688 44.4824 9.856C44.8344 9.008 45.2904 8.304 45.8504 7.744C46.4104 7.184 47.0504 6.76 47.7704 6.472C48.5064 6.184 49.2584 6.04 50.0264 6.04C51.8184 6.04 53.2344 6.592 54.2744 7.696C55.3144 8.784 55.8344 10.392 55.8344 12.52C55.8344 12.728 55.8264 12.96 55.8104 13.216C55.7944 13.456 55.7784 13.672 55.7624 13.864H47.6504C47.7304 14.6 48.0744 15.184 48.6824 15.616C49.2904 16.048 50.1064 16.264 51.1304 16.264C51.7864 16.264 52.4264 16.208 53.0504 16.096C53.6904 15.968 54.2104 15.816 54.6104 15.64L55.0904 18.544C54.8984 18.64 54.6424 18.736 54.3224 18.832C54.0024 18.928 53.6424 19.008 53.2424 19.072C52.8584 19.152 52.4424 19.216 51.9944 19.264C51.5464 19.312 51.0984 19.336 50.6504 19.336C49.5144 19.336 48.5224 19.168 47.6744 18.832C46.8424 18.496 46.1464 18.04 45.5864 17.464C45.0424 16.872 44.6344 16.176 44.3624 15.376C44.1064 14.576 43.9784 13.712 43.9784 12.784ZM52.3784 11.416C52.3624 11.112 52.3064 10.816 52.2104 10.528C52.1304 10.24 51.9944 9.984 51.8024 9.76C51.6264 9.536 51.3944 9.352 51.1064 9.208C50.8344 9.064 50.4904 8.992 50.0744 8.992C49.6744 8.992 49.3304 9.064 49.0424 9.208C48.7544 9.336 48.5144 9.512 48.3224 9.736C48.1304 9.96 47.9784 10.224 47.8664 10.528C47.7704 10.816 47.6984 11.112 47.6504 11.416H52.3784ZM64.1341 19.24C63.0941 19.224 62.2461 19.112 61.5901 18.904C60.9501 18.696 60.4381 18.408 60.0541 18.04C59.6861 17.656 59.4301 17.2 59.2861 16.672C59.1581 16.128 59.0941 15.52 59.0941 14.848V0.951999L62.6701 0.375999V14.128C62.6701 14.448 62.6941 14.736 62.7421 14.992C62.7901 15.248 62.8781 15.464 63.0061 15.64C63.1501 15.816 63.3501 15.96 63.6061 16.072C63.8621 16.184 64.2061 16.256 64.6381 16.288L64.1341 19.24ZM78.138 6.376C77.418 8.808 76.666 11.088 75.882 13.216C75.098 15.344 74.242 17.408 73.314 19.408C72.978 20.128 72.642 20.736 72.306 21.232C71.97 21.744 71.602 22.16 71.202 22.48C70.802 22.816 70.346 23.056 69.834 23.2C69.338 23.36 68.754 23.44 68.082 23.44C67.522 23.44 67.002 23.384 66.522 23.272C66.058 23.176 65.674 23.064 65.37 22.936L65.994 20.08C66.362 20.208 66.69 20.296 66.978 20.344C67.266 20.392 67.57 20.416 67.89 20.416C68.53 20.416 69.018 20.24 69.354 19.888C69.706 19.552 70.002 19.08 70.242 18.472C69.426 16.872 68.61 15.08 67.794 13.096C66.978 11.096 66.21 8.856 65.49 6.376H69.282C69.442 7 69.626 7.68 69.834 8.416C70.058 9.136 70.29 9.872 70.53 10.624C70.77 11.36 71.01 12.08 71.25 12.784C71.506 13.488 71.746 14.128 71.97 14.704C72.178 14.128 72.394 13.488 72.618 12.784C72.842 12.08 73.058 11.36 73.266 10.624C73.49 9.872 73.698 9.136 73.89 8.416C74.098 7.68 74.282 7 74.442 6.376H78.138Z" fill="white"/>
</svg>
