<?xml version="1.0" encoding="UTF-8"?>
<svg version="1.1" xmlns="http://www.w3.org/2000/svg" width="111" height="74">
<path d="M0 0 C36.63 0 73.26 0 111 0 C111 24.42 111 48.84 111 74 C74.37 74 37.74 74 0 74 C0 49.58 0 25.16 0 0 Z " fill="#033E5A" transform="translate(0,0)"/>
<path d="M0 0 C5.37783384 0.45574863 10.64002096 1.20816245 15.9375 2.25 C17.59072266 2.56710938 17.59072266 2.56710938 19.27734375 2.890625 C22 4 22 4 23.37890625 6.609375 C23.58386719 7.39828125 23.78882812 8.1871875 24 9 C24.33 6.69 24.66 4.38 25 2 C25.66 2 26.32 2 27 2 C27 3.32 27 4.64 27 6 C27.78375 6.0825 28.5675 6.165 29.375 6.25 C32 7 32 7 33.3125 9.0625 C33.539375 9.701875 33.76625 10.34125 34 11 C33.27425781 11.23460937 32.54851562 11.46921875 31.80078125 11.7109375 C28.53213699 13.21533444 26.66802714 15.03340448 24.1875 17.625 C23.39730469 18.44226563 22.60710938 19.25953125 21.79296875 20.1015625 C21.20128906 20.72804688 20.60960938 21.35453125 20 22 C15.74624917 20.4286144 13.34847137 17.21524587 10.5625 13.8125 C10.07676514 13.22895752 9.59103027 12.64541504 9.09057617 12.04418945 C5.87362508 8.15015655 2.82555539 4.18961661 0 0 Z " fill="#01AFBB" transform="translate(33,7)"/>
<path d="M0 0 C-7.67276775 12.06430868 -7.67276775 12.06430868 -13.18945312 13.61572266 C-18.17853248 14.14667632 -23.04608607 13.67949347 -28 13 C-27.06558465 11.72689688 -26.12732889 10.456612 -25.1875 9.1875 C-24.66542969 8.47980469 -24.14335938 7.77210937 -23.60546875 7.04296875 C-22.81076172 6.03169922 -22.81076172 6.03169922 -22 5 C-21.59265625 4.45472656 -21.1853125 3.90945312 -20.765625 3.34765625 C-18.01837056 1.25074744 -14.88745603 0.85569669 -11.5625 0.25 C-10.89412109 0.11207031 -10.22574219 -0.02585937 -9.53710938 -0.16796875 C-6.09359865 -0.83005109 -3.32789093 -1.25966204 0 0 Z " fill="#01ACB9" transform="translate(84,17)"/>
<path d="M0 0 C0.99 0.33 1.98 0.66 3 1 C1.43619087 5.79202331 -1.25028292 9.32971147 -4.3125 13.25 C-5.0230957 14.20519531 -5.0230957 14.20519531 -5.74804688 15.1796875 C-9.32785866 19.78300225 -9.32785866 19.78300225 -12.85546875 20.921875 C-13.56316406 20.94765625 -14.27085938 20.9734375 -15 21 C-13.72594127 18.28966915 -12.33943761 15.98829259 -10.46875 13.65234375 C-9.98792969 13.04712891 -9.50710937 12.44191406 -9.01171875 11.81835938 C-8.51285156 11.19767578 -8.01398437 10.57699219 -7.5 9.9375 C-6.50944672 8.69738872 -5.51982835 7.45652996 -4.53125 6.21484375 C-4.09361328 5.66948975 -3.65597656 5.12413574 -3.20507812 4.56225586 C-2.06994425 3.0906753 -1.03091867 1.54637801 0 0 Z " fill="#648C82" transform="translate(30,9)"/>
<path d="M0 0 C2.5 1.5625 2.5 1.5625 4 3 C3.67 3.99 3.34 4.98 3 6 C-0.96 6.66 -4.92 7.32 -9 8 C-11 5 -11 5 -10.75 2.375 C-10.5025 1.59125 -10.255 0.8075 -10 0 C-6.76038186 -1.61980907 -3.41534955 -0.78971521 0 0 Z " fill="#07475F" transform="translate(77,11)"/>
<path d="M0 0 C3 0.25 3 0.25 5 2.25 C5.36487512 5.09602594 5.40199375 6.6364306 3.8125 9.0625 C1.35092224 10.67525784 -0.11065736 10.6834014 -3 10.25 C-4.875 9.0625 -4.875 9.0625 -6 7.25 C-5.66963219 2.73497322 -4.81520347 0.40126696 0 0 Z " fill="#DDE3E6" transform="translate(90,41.75)"/>
<path d="M0 0 C3 0.25 3 0.25 5 2.25 C5.36487512 5.09602594 5.40199375 6.6364306 3.8125 9.0625 C1.35092224 10.67525784 -0.11065736 10.6834014 -3 10.25 C-4.875 9.0625 -4.875 9.0625 -6 7.25 C-5.66963219 2.73497322 -4.81520347 0.40126696 0 0 Z " fill="#DDE3E6" transform="translate(22,41.75)"/>
<path d="M0 0 C3 0.25 3 0.25 5 2.25 C5.25 5.25 5.25 5.25 5 8.25 C3 10.25 3 10.25 0 10.5 C-3 10.25 -3 10.25 -5 8.25 C-5.25 5.25 -5.25 5.25 -5 2.25 C-3 0.25 -3 0.25 0 0 Z " fill="#D9E0E3" transform="translate(76,41.75)"/>
<path d="M0 0 C1.65 0 3.3 0 5 0 C6.83691257 3.78187881 7.15837626 5.94568308 6 10 C4.02 10 2.04 10 0 10 C0 6.7 0 3.4 0 0 Z " fill="#E7EBEC" transform="translate(60,42)"/>
<path d="M0 0 C0.66 0 1.32 0 2 0 C2 1.32 2 2.64 2 4 C3.32 4 4.64 4 6 4 C6 2.68 6 1.36 6 0 C6.66 0 7.32 0 8 0 C8 3.3 8 6.6 8 10 C7.34 10 6.68 10 6 10 C6 8.68 6 7.36 6 6 C4.68 6 3.36 6 2 6 C2 7.32 2 8.64 2 10 C1.34 10 0.68 10 0 10 C0 6.7 0 3.4 0 0 Z " fill="#EBEEEF" transform="translate(4,42)"/>
<path d="M0 0 C0.66 0 1.32 0 2 0 C2.33 0.66 2.66 1.32 3 2 C4.32 1.34 5.64 0.68 7 0 C6.79375 0.721875 6.5875 1.44375 6.375 2.1875 C5.94047789 5.44641585 6.58319331 7.08304504 8 10 C7.01 10 6.02 10 5 10 C4.67 8.68 4.34 7.36 4 6 C3.34 6 2.68 6 2 6 C2 7.32 2 8.64 2 10 C1.34 10 0.68 10 0 10 C0 6.7 0 3.4 0 0 Z " fill="#E4E9EB" transform="translate(99,42)"/>
<path d="M0 0 C1.98 0 3.96 0 6 0 C6 0.66 6 1.32 6 2 C4.68 2 3.36 2 2 2 C2 2.66 2 3.32 2 4 C2.99 4.33 3.98 4.66 5 5 C4.01 5 3.02 5 2 5 C2 5.99 2 6.98 2 8 C3.32 8 4.64 8 6 8 C6 8.66 6 9.32 6 10 C4.02 10 2.04 10 0 10 C0 6.7 0 3.4 0 0 Z " fill="#E3E8EA" transform="translate(41,42)"/>
<path d="M0 0 C3.59634744 3.49359465 6.83451967 7.11098131 10 11 C8.68 11.33 7.36 11.66 6 12 C3.69 8.7 1.38 5.4 -1 2 C-0.67 1.34 -0.34 0.68 0 0 Z " fill="#648C82" transform="translate(85,18)"/>
<path d="M0 0 C2.31 0 4.62 0 7 0 C6.01 0.495 6.01 0.495 5 1 C5 3.97 5 6.94 5 10 C4.01 10 3.02 10 2 10 C2 7.36 2 4.72 2 2 C1.34 2 0.68 2 0 2 C0 1.34 0 0.68 0 0 Z " fill="#C4D0D6" transform="translate(30,42)"/>
<path d="M0 0 C7.50769231 0.49230769 7.50769231 0.49230769 10 3.0625 C10.33 3.701875 10.66 4.34125 11 5 C10 6 10 6 7.75 6.4375 C3.55141445 5.76954321 2.45666415 3.3691394 0 0 Z " fill="#648C83" transform="translate(69,10)"/>
<path d="M0 0 C0.66 0 1.32 0 2 0 C2.33 0.66 2.66 1.32 3 2 C4.32 2 5.64 2 7 2 C6.67 3.65 6.34 5.3 6 7 C3.69 7 1.38 7 -1 7 C-0.67 4.69 -0.34 2.38 0 0 Z " fill="#6A8C99" transform="translate(59,59)"/>
<path d="M0 0 C1.65 0.33 3.3 0.66 5 1 C4.67 2.65 4.34 4.3 4 6 C2.35 5.67 0.7 5.34 -1 5 C-0.67 3.35 -0.34 1.7 0 0 Z " fill="#0F4761" transform="translate(74,44)"/>
<path d="M0 0 C0 1.65 0 3.3 0 5 C-1.98 5 -3.96 5 -6 5 C-6 3.35 -6 1.7 -6 0 C-3 -1 -3 -1 0 0 Z " fill="#315F64" transform="translate(38,20)"/>
<path d="M0 0 C3.3 0 6.6 0 10 0 C10.33 0.66 10.66 1.32 11 2 C10.67 2.99 10.34 3.98 10 5 C9.34 4.67 8.68 4.34 8 4 C8.33 3.34 8.66 2.68 9 2 C7.68 2 6.36 2 5 2 C4.67 2.99 4.34 3.98 4 5 C4 4.01 4 3.02 4 2 C2.68 2.99 1.36 3.98 0 5 C0 3.35 0 1.7 0 0 Z " fill="#7997A2" transform="translate(42,61)"/>
<path d="M0 0 C1.65 0 3.3 0 5 0 C5 1.98 5 3.96 5 6 C3.35 5.67 1.7 5.34 0 5 C0 3.35 0 1.7 0 0 Z " fill="#0A435E" transform="translate(87,44)"/>
<path d="M0 0 C1.65 0 3.3 0 5 0 C5 1.98 5 3.96 5 6 C3.35 5.67 1.7 5.34 0 5 C0 3.35 0 1.7 0 0 Z " fill="#0A435E" transform="translate(19,44)"/>
<path d="M0 0 C0.66 0.33 1.32 0.66 2 1 C2.40729228 3.32156597 2.74438677 5.6568787 3 8 C1.02 8 -0.96 8 -3 8 C-3 7.01 -3 6.02 -3 5 C-1.68 5 -0.36 5 1 5 C0.01 4.67 -0.98 4.34 -2 4 C-2 3.01 -2 2.02 -2 1 C-1.34 0.67 -0.68 0.34 0 0 Z " fill="#8AA5B1" transform="translate(64,42)"/>
<path d="M0 0 C0.66 0 1.32 0 2 0 C2 2.64 2 5.28 2 8 C2.99 8 3.98 8 5 8 C5 8.66 5 9.32 5 10 C3.35 10 1.7 10 0 10 C0 6.7 0 3.4 0 0 Z " fill="#ECEEF0" transform="translate(51,42)"/>
<path d="M0 0 C0.66 0 1.32 0 2 0 C2 1.32 2 2.64 2 4 C2.99 4.33 3.98 4.66 5 5 C4.01 5 3.02 5 2 5 C2 6.65 2 8.3 2 10 C1.34 10 0.68 10 0 10 C0 6.7 0 3.4 0 0 Z " fill="#D2DBDF" transform="translate(4,42)"/>
<path d="M0 0 C1.875 0.3125 1.875 0.3125 4 1 C4.66 1.99 5.32 2.98 6 4 C2.98968256 4.93423645 2.13349732 5.04449911 -1 4 C-0.67 2.68 -0.34 1.36 0 0 Z " fill="#235867" transform="translate(67,11)"/>
<path d="M0 0 C0.598125 0.350625 1.19625 0.70125 1.8125 1.0625 C1.8125 2.7125 1.8125 4.3625 1.8125 6.0625 C0.8225 6.0625 -0.1675 6.0625 -1.1875 6.0625 C-1.1875 4.4125 -1.1875 2.7625 -1.1875 1.0625 C-2.5075 0.7325 -3.8275 0.4025 -5.1875 0.0625 C-2.1875 -0.9375 -2.1875 -0.9375 0 0 Z " fill="#BAC9D0" transform="translate(93.1875,42.9375)"/>
<path d="M0 0 C0.598125 0.350625 1.19625 0.70125 1.8125 1.0625 C1.8125 2.7125 1.8125 4.3625 1.8125 6.0625 C0.8225 6.0625 -0.1675 6.0625 -1.1875 6.0625 C-1.1875 4.4125 -1.1875 2.7625 -1.1875 1.0625 C-2.5075 0.7325 -3.8275 0.4025 -5.1875 0.0625 C-2.1875 -0.9375 -2.1875 -0.9375 0 0 Z " fill="#BAC9D0" transform="translate(25.1875,42.9375)"/>
<path d="M0 0 C4.875 0.875 4.875 0.875 6 2 C6.04063832 3.66617115 6.042721 5.33388095 6 7 C5.34 7 4.68 7 4 7 C3.566875 5.824375 3.566875 5.824375 3.125 4.625 C2.15087746 1.90328368 2.15087746 1.90328368 0 0 Z " fill="#EAEDEE" transform="translate(75,42)"/>
</svg>
