<svg width="86" height="91" viewBox="0 0 86 91" fill="none" xmlns="http://www.w3.org/2000/svg">
<path d="M67.3414 6H18C11.3726 6 6 11.3726 6 18V56.6828C6 63.3102 11.3726 68.6828 18 68.6828H21.2959C25.6409 68.6828 29.6465 71.0315 31.7681 74.8233L35.6403 81.7438C37.7885 85.5832 43.2016 85.8816 45.7588 82.3015L51.897 73.7079C54.1496 70.5544 57.7864 68.6828 61.6618 68.6828H67.3414C73.9688 68.6828 79.3414 63.3102 79.3414 56.6828V18C79.3414 11.3726 73.9688 6 67.3414 6Z" fill="white"/>
<path d="M67.3414 3H18C9.71573 3 3 9.71574 3 18V56.6828C3 64.967 9.71572 71.6828 18 71.6828H21.2959C24.5547 71.6828 27.5589 73.4443 29.1501 76.2882L33.0222 83.2086C36.2446 88.9678 44.3642 89.4153 48.2 84.0452L54.3382 75.4516C56.0276 73.0865 58.7553 71.6828 61.6618 71.6828H67.3414C75.6257 71.6828 82.3414 64.967 82.3414 56.6828V18C82.3414 9.71573 75.6256 3 67.3414 3Z" stroke="#85C7D3" stroke-opacity="0.2" stroke-width="6"/>
<path d="M54.3525 29.1131C53.6822 28.4424 52.8862 27.9104 52.0102 27.5474C51.1341 27.1844 50.1952 26.9976 49.2469 26.9976C48.2986 26.9976 47.3597 27.1844 46.4836 27.5474C45.6076 27.9104 44.8117 28.4424 44.1413 29.1131L42.75 30.5043L41.3588 29.1131C40.0047 27.759 38.1681 26.9983 36.2532 26.9983C34.3382 26.9983 32.5016 27.759 31.1475 29.1131C29.7934 30.4672 29.0327 32.3037 29.0327 34.2187C29.0327 36.1337 29.7934 37.9702 31.1475 39.3243L32.5388 40.7156L42.75 50.9268L52.9613 40.7156L54.3525 39.3243C55.0232 38.654 55.5552 37.858 55.9182 36.982C56.2812 36.1059 56.4681 35.167 56.4681 34.2187C56.4681 33.2704 56.2812 32.3315 55.9182 31.4554C55.5552 30.5794 55.0232 29.7834 54.3525 29.1131Z" fill="#85C7D3" stroke="#85C7D3" stroke-width="2" stroke-linecap="round" stroke-linejoin="round"/>
</svg>
