<svg width="160" height="160" viewBox="0 0 160 160" fill="none" xmlns="http://www.w3.org/2000/svg">
<circle cx="1.73913" cy="1.73913" r="1.73913" fill="#888888"/>
<circle cx="33.0433" cy="1.73913" r="1.73913" fill="#888888"/>
<circle cx="64.348" cy="1.73913" r="1.73913" fill="#888888"/>
<circle cx="95.6522" cy="1.73913" r="1.73913" fill="#888888"/>
<circle cx="126.956" cy="1.73913" r="1.73913" fill="#888888"/>
<circle cx="158.261" cy="1.73913" r="1.73913" fill="#888888"/>
<circle cx="1.73913" cy="33.0435" r="1.73913" fill="#888888"/>
<circle cx="33.0433" cy="33.0435" r="1.73913" fill="#888888"/>
<circle cx="64.348" cy="33.0435" r="1.73913" fill="#888888"/>
<circle cx="95.6522" cy="33.0435" r="1.73913" fill="#888888"/>
<circle cx="126.956" cy="33.0435" r="1.73913" fill="#888888"/>
<circle cx="158.261" cy="33.0435" r="1.73913" fill="#888888"/>
<circle cx="1.73913" cy="64.3478" r="1.73913" fill="#888888"/>
<circle cx="33.0433" cy="64.3478" r="1.73913" fill="#888888"/>
<circle cx="64.348" cy="64.3478" r="1.73913" fill="#888888"/>
<circle cx="95.6522" cy="64.3478" r="1.73913" fill="#888888"/>
<circle cx="126.956" cy="64.3478" r="1.73913" fill="#888888"/>
<circle cx="158.261" cy="64.3478" r="1.73913" fill="#888888"/>
<circle cx="1.73913" cy="95.6522" r="1.73913" fill="#888888"/>
<circle cx="33.0433" cy="95.6522" r="1.73913" fill="#888888"/>
<circle cx="64.348" cy="95.6522" r="1.73913" fill="#888888"/>
<circle cx="95.6522" cy="95.6522" r="1.73913" fill="#888888"/>
<circle cx="126.956" cy="95.6522" r="1.73913" fill="#888888"/>
<circle cx="158.261" cy="95.6522" r="1.73913" fill="#888888"/>
<circle cx="1.73913" cy="126.957" r="1.73913" fill="#888888"/>
<circle cx="33.0433" cy="126.957" r="1.73913" fill="#888888"/>
<circle cx="64.348" cy="126.957" r="1.73913" fill="#888888"/>
<circle cx="95.6522" cy="126.957" r="1.73913" fill="#888888"/>
<circle cx="126.956" cy="126.957" r="1.73913" fill="#888888"/>
<circle cx="158.261" cy="126.957" r="1.73913" fill="#888888"/>
<circle cx="1.73913" cy="158.261" r="1.73913" fill="#888888"/>
<circle cx="33.0433" cy="158.261" r="1.73913" fill="#888888"/>
<circle cx="64.348" cy="158.261" r="1.73913" fill="#888888"/>
<circle cx="95.6522" cy="158.261" r="1.73913" fill="#888888"/>
<circle cx="126.956" cy="158.261" r="1.73913" fill="#888888"/>
<circle cx="158.261" cy="158.261" r="1.73913" fill="#888888"/>
</svg>
